<svg xmlns="http://www.w3.org/2000/svg" viewBox="70.4927536231884 530.8159999999999 1873.623188405797 790.656" version="1.1" style="max-height: 500px" width="1873.623188405797" height="790.656">
<path fill="#FDBF0D" d="m0 0 6 1 25 11 27 13 26 12 32 15 33 15 24 11 36 17 28 13 24 12 5 5 1 7v51l-2 6-10-1-21-7-42-19-58-25-43-19-14-5-1 69v24l1 118 3 7 5 3 20-6 63-23 34-13 38-14 15-5 8-1 2 2 2 13 2 45v11l-8 4-26 10-53 21-97 38-41 16-35 14-9 4h-2l-1-229v-123l1-73 1-24z" transform="translate(514,830)"/>
<path fill="#FDBF0D" d="m0 0 3 1 1 17 1 432-7-1-34-15-30-13-64-28-42-18-29-13-37-16-27-12-2-2v-210l6-8 7-6 16-8 29-12 13-3 4 3 2 10 1 23 1 153 1 14 3 5 14 7 67 25 12 4h8l3-2 2-7 1-10 1-90 1-183 9-7 21-11 31-14z" transform="translate(496,829)"/>
<path fill="#FDBF0D" d="m0 0 8 1 41 19 27 13 29 13 35 16 88 41 66 31 24 11 16 8 7 6 2 5 1 25v13l-1 22-2 5-2 2-8-1-20-8-33-15-68-32-18-8-34-16-37-17-34-16-56-26-27-12-25 10-43 18-25 11-41 17-29 12-44 19-32 14-43 18-37 15-19 7h-5l-2-5v-62l3-7 9-6 26-12 35-15 40-17 31-13 27-12 29-12 45-19 43-18 49-21z" transform="translate(502,576)"/>
<path fill="#FDBF0D" d="m0 0 21 9 34 16 26 12 34 16 29 13 30 14 32 15 33 15 22 11 26 12 27 13 20 11 5 6 1 28v13l-1 20-3 5-2 2-7-1-29-12-39-18-34-16-35-16-66-31-28-13-71-33-22-10h-6l-23 10-36 15-40 17-36 15-26 11-28 12-43 18-23 10-21 9-40 16-20 7-4-1-1-5-1-27v-36l3-5 9-6 26-12 29-12 28-12 36-15 42-18 104-44 45-19 21-8z" transform="translate(506,699)"/>
<path fill="#FDBF0D" d="m0 0h20l8 10 13 19 10 13 1 1 1-43h20l1 1v78h-21l-13-17-14-20-4-6-1 43h-22v-71z" transform="translate(1678,1091)"/>
<path fill="#FDBF0D" d="m0 0h19l8 10 12 17 11 15 2 1-1-8 1-34 1-1h20v79h-19l-6-5-10-14-13-18-4-5-2-1 1 2v41h-21l-1-1v-43l1-34z" transform="translate(1019,1091)"/>
<path fill="#FDBF0D" d="m0 0h20l5 5 11 16 13 18 4 6 1-44 1-1h18l1 1 1 7v55l-1 16h-19l-12-14-13-18-7-11-2-1 1 43-1 1h-20l-1-12z" transform="translate(972,996)"/>
<path fill="#FDBF0D" d="m0 0h14l11 3 9 6 7 7 5 8 3 12v8l-3 12-6 9-9 8-11 5-7 1h-15l-10-3-11-7-7-9-5-11-1-4v-11l4-12 6-8 9-8 12-5zm2 19-8 4-6 8-2 7 1 8 4 7 6 5 6 2h8l9-4 5-7 1-4v-10l-4-9-7-6-3-1z" transform="translate(1618,1091)"/>
<path fill="#FDBF0D" d="m0 0h12l10 2 8 4 8 7 6 10 3 9v16l-4 12-8 10-10 6-16 3h-12l-12-3-8-6-7-8-5-12-1-5v-12l4-12 6-8 8-7 8-4zm1 19-8 4-5 7-2 6v10l5 8 6 5 3 1h10l10-5 5-8 1-8-2-9-8-9-5-2z" transform="translate(959,1091)"/>
<path fill="#FDBF0D" d="m0 0 32 1 12 2 9 6 6 8 1 3v12l-5 10-5 6h-2l8 14 9 14 1 4h-24l-12-21-4-5-4-2v27l-1 1h-22l-1-67 1-12zm22 18-1 6v10l1 2 4 1 9-2 3-3 1-6-3-5-5-2z" transform="translate(1247,1090)"/>
<path fill="#FDBF0D" d="m0 0h21l1 1 1 51 1 4 6 2 2 1h9l5-3 2-3 1-6 1-46 1-1h20l1 3-1 49-1 9-8 10-7 5-10 3h-19l-11-4-8-7-5-8-2-5-1-8v-46z" transform="translate(852,996)"/>
<path fill="#FDBF0D" d="m0 0h22l1 1v39l2 13 6 5 9 1 6-4 3-5 1-8 1-42h21v28l-1 27-3 9-8 9-8 4-13 2h-12l-9-2-8-6-6-7-4-12z" transform="translate(1318,1091)"/>
<path fill="#FDBF0D" d="m0 0 22 1 3 5 26 65 2 8h-23l-6-14-5-1h-23l-3 10-2 5h-22l3-11 12-31 14-35zm9 25-6 19v3l12 1 2-1-2-11-3-10z" transform="translate(1150,996)"/>
<path fill="#FDBF0D" d="m0 0h51l1 1v10l-1 7-1 1h-26l-1 12h25v17l-1 1h-25l1 11h29l1 1 1 17-1 1h-52l-1-1z" transform="translate(1765,1091)"/>
<path fill="#FDBF0D" d="m0 0h14l14 2 5 3 1 1 1 15-1 3-5-1-11-3h-15l1 6 24 10 7 6 3 7v10l-4 10-8 7-6 2-9 1h-16l-14-3-2-4v-17l1-2 15 6 9 2 7-1 3-2-1-5-22-8-9-8-2-4v-16l3-6 7-7z" transform="translate(1124,1091)"/>
<path fill="#FDBF0D" d="m0 0h16l16 3 2 2v19l-5-1-9-3h-13l-4 2v3l11 5 13 5 6 4 4 7 1 4v9l-4 10-8 7-5 2-8 1h-12l-16-2-4-2v-21l9 3 10 3h13l3-2v-3l-10-5-15-6-6-4-4-5-2-7 1-10 4-8 8-7z" transform="translate(1847,1091)"/>
<path fill="#FDBF0D" d="m0 0h20l8 3 3 5v13l-1 3-6-1-10-3h-9l-8 3-5 4-3 5-1 4v9l3 6 7 6 6 2h12l10-3 6-1 1 4v12l-3 5-4 2-6 1h-20l-12-3-9-5-7-7-6-12-1-4v-15l4-12 6-8 7-6 10-5z" transform="translate(1435,1091)"/>
<path fill="#FDBF0D" d="m0 0h16l13 3 1 2v14l-1 5-5-1-11-3h-9l-8 3-6 5-3 7v10l4 8 5 4 7 2h12l14-4 1 1v14l-2 5-4 3-5 1h-22l-11-3-11-7-6-8-5-12-1-5v-9l4-13 6-8 8-7 11-5z" transform="translate(1510,1091)"/>
<path fill="#FDBF0D" d="m0 0h16l10 3 2 5v15l-2 1-13-4h-10l-10 5-4 5-3 8 1 9 4 6 5 4 6 2h13l11-4h4v17l-4 5-8 2h-18l-16-4-10-7-7-10-4-13v-9l3-12 6-9 7-7 10-5z" transform="translate(886,1091)"/>
<path fill="#FDBF0D" d="m0 0h72v18l-1 1-23 1v58l-1 1h-22v-60h-25z" transform="translate(1054,996)"/>
<path fill="#FDBF0D" d="m0 0h72v18l-25 1v60h-22l-1-60h-23l-1-3z" transform="translate(1166,1091)"/>
<path fill="#FDBF0D" d="m0 0 20 1 1 1v77h-21l-1-4v-55z" transform="translate(937,996)"/>
<path fill="#FDBF0D" d="m0 0 21 1 1 49v28l-1 1h-20l-1-1z" transform="translate(1551,1091)"/>
</svg>